<svg xmlns="http://www.w3.org/2000/svg" xmlns:xlink="http://www.w3.org/1999/xlink" fill="none" version="1.1" width="256" height="256" viewBox="0 0 256 256"><defs><clipPath id="master_svg0_24_005"><rect x="0" y="0" width="256" height="256" rx="0"/></clipPath><clipPath id="master_svg1_24_302"><rect x="26" y="0.2188720703125" width="32" height="32" rx="0"/></clipPath><clipPath id="master_svg2_24_435"><rect x="26" y="32.187744140625" width="32" height="32" rx="0"/></clipPath><clipPath id="master_svg3_24_543"><rect x="26" y="64.1566162109375" width="32" height="32" rx="0"/></clipPath><clipPath id="master_svg4_24_561"><rect x="26" y="96.1253662109375" width="32" height="32" rx="0"/></clipPath><clipPath id="master_svg5_24_575"><rect x="26" y="128.0941162109375" width="32" height="32" rx="0"/></clipPath><clipPath id="master_svg6_24_589"><rect x="26" y="160.0628662109375" width="32" height="32" rx="0"/></clipPath><clipPath id="master_svg7_24_603"><rect x="26" y="192.0316162109375" width="32" height="32" rx="0"/></clipPath><clipPath id="master_svg8_24_617"><rect x="26" y="224.0001220703125" width="32" height="32" rx="0"/></clipPath></defs><g clip-path="url(#master_svg0_24_005)"><rect x="0" y="0" width="256" height="256" rx="0" fill="#2A2D2E" fill-opacity="1"/><g><g><rect x="0" y="0.2188720703125" width="256" height="32" rx="0" fill="#323232" fill-opacity="1"/></g><g clip-path="url(#master_svg1_24_302)"><g><path d="M30,10.2188720703125L34,10.2188720703125L34,8.2188720703125L29,8.2188720703125L28,9.2188720703125L28,25.2188720703125L29,26.2188720703125L34,26.2188720703125L34,24.2188720703125L30,24.2188720703125L30,10.2188720703125ZM55,8.2188720703125L50,8.2188720703125L50,10.2188720703125L54,10.2188720703125L54,24.2188720703125L50,24.2188720703125L50,26.2188720703125L55,26.2188720703125L56,25.2188720703125L56,9.2188720703125L55,8.2188720703125ZM49.519999999999996,13.3588720703125L50,14.2188720703125L50,19.2388720703125L49.4,20.1388720703125L40.4,24.1388720703125L39.480000000000004,24.1388720703125L34.480000000000004,21.1388720703125L34,20.278872070312502L34,15.278872070312499L34.6,14.3588720703125L43.6,10.3588720703125L44.519999999999996,10.3588720703125L49.519999999999996,13.3588720703125ZM36,19.6388720703125L39,21.4388720703125L39,18.778872070312502L36,16.978872070312498L36,19.6388720703125ZM37.16,15.338872070312501L40.06,17.0788720703125L46.84,14.0788720703125L43.94,12.338872070312501L37.16,15.338872070312501ZM41.06,21.6788720703125L48.06,18.5588720703125L48.06,15.7588720703125L41.06,18.8588720703125L41.06,21.6788720703125Z" fill-rule="evenodd" fill="#FFFFFF" fill-opacity="1"/></g></g><g><path d="M10.10938,26.464L19.7578,26.464L19.7578,24.6437L16.22656,24.6437L16.22656,8.964L14.54688,8.964C13.58594,9.51869,12.46094,9.92494,10.89844,10.214L10.89844,11.6046L14.04688,11.6046L14.04688,24.6437L10.10938,24.6437L10.10938,26.464Z" fill="#FFFFFF" fill-opacity="1"/></g><g><path d="M69.82422,21.2617L72.96484,11.5234L75.1797,11.5234L70.63281,24.2031L68.98047,24.2031L64.386719,11.5234L66.60156,11.5234L69.82422,21.2617ZM84.6484,20.8398Q84.6484,19.9609,83.9863,19.4746Q83.3242,18.9883,81.6777,18.6367Q80.0312,18.2852,79.0645,17.793Q78.0977,17.3008,77.6348,16.6211Q77.1719,15.9414,77.1719,15.0039Q77.1719,13.4453,78.4902,12.3672Q79.8086,11.2891,81.8594,11.2891Q84.0156,11.2891,85.3574,12.4023Q86.6992,13.5156,86.6992,15.25L84.5195,15.25Q84.5195,14.3594,83.7637,13.7148Q83.0078,13.0703,81.8594,13.0703Q80.6758,13.0703,80.0078,13.5859Q79.3398,14.1016,79.3398,14.9336Q79.3398,15.7188,79.9609,16.1172Q80.582,16.5156,82.2051,16.8789Q83.8281,17.2422,84.8359,17.7461Q85.8438,18.25,86.3301,18.959Q86.8164,19.668,86.8164,20.6875Q86.8164,22.3867,85.457,23.4121Q84.0977,24.4375,81.9297,24.4375Q80.4062,24.4375,79.2344,23.8984Q78.0625,23.3594,77.4004,22.3926Q76.7383,21.4258,76.7383,20.3008L78.9062,20.3008Q78.9648,21.3906,79.7793,22.0293Q80.5938,22.668,81.9297,22.668Q83.1602,22.668,83.9043,22.1699Q84.6484,21.6719,84.6484,20.8398ZM94.7266,22.668Q95.8867,22.668,96.7539,21.9648Q97.6211,21.2617,97.7148,20.207L99.7656,20.207Q99.707,21.2969,99.0156,22.2812Q98.32419999999999,23.2656,97.1699,23.8516Q96.0156,24.4375,94.7266,24.4375Q92.1367,24.4375,90.6074,22.709Q89.0781,20.9805,89.0781,17.9805L89.0781,17.6172Q89.0781,15.7656,89.7578,14.3242Q90.4375,12.8828,91.709,12.0859Q92.9805,11.2891,94.7148,11.2891Q96.8477,11.2891,98.2598,12.5664Q99.6719,13.8438,99.7656,15.8828L97.7148,15.8828Q97.6211,14.6523,96.7832,13.8613Q95.9453,13.0703,94.7148,13.0703Q93.0625,13.0703,92.1543,14.2598Q91.2461,15.4492,91.2461,17.6992L91.2461,18.1094Q91.2461,20.3008,92.1484,21.4844Q93.0508,22.668,94.7266,22.668ZM101.6289,17.7461Q101.6289,15.8828,102.3613,14.3945Q103.0938,12.9062,104.40039999999999,12.0977Q105.707,11.2891,107.3828,11.2891Q109.9727,11.2891,111.5723,13.082Q113.1719,14.875,113.1719,17.8516L113.1719,18.0039Q113.1719,19.8555,112.46289999999999,21.3262Q111.7539,22.7969,110.43549999999999,23.6172Q109.1172,24.4375,107.4062,24.4375Q104.8281,24.4375,103.2285,22.6445Q101.6289,20.8516,101.6289,17.8984L101.6289,17.7461ZM103.8086,18.0039Q103.8086,20.1133,104.78710000000001,21.3906Q105.7656,22.668,107.4062,22.668Q109.0586,22.668,110.0312,21.373Q111.0039,20.0781,111.0039,17.7461Q111.0039,15.6602,110.0137,14.3652Q109.02340000000001,13.0703,107.3828,13.0703Q105.7773,13.0703,104.793,14.3477Q103.8086,15.625,103.8086,18.0039ZM115.36330000000001,17.7578Q115.36330000000001,14.8398,116.7461,13.0645Q118.1289,11.2891,120.3672,11.2891Q122.5938,11.2891,123.8945,12.8125L123.8945,6.20312L126.0625,6.20312L126.0625,24.2031L124.0703,24.2031L123.9648,22.8438Q122.66409999999999,24.4375,120.3438,24.4375Q118.1406,24.4375,116.75200000000001,22.6328Q115.36330000000001,20.8281,115.36330000000001,17.9219L115.36330000000001,17.7578ZM117.5312,18.0039Q117.5312,20.1602,118.4219,21.3789Q119.3125,22.5977,120.8828,22.5977Q122.9453,22.5977,123.8945,20.7461L123.8945,14.9219Q122.9219,13.1289,120.9062,13.1289Q119.3125,13.1289,118.4219,14.3594Q117.5312,15.5898,117.5312,18.0039ZM134.6875,24.4375Q132.1094,24.4375,130.4922,22.7441Q128.875,21.0508,128.875,18.2148L128.875,17.8164Q128.875,15.9297,129.5957,14.4473Q130.3164,12.9648,131.6113,12.127Q132.9062,11.2891,134.418,11.2891Q136.8906,11.2891,138.26170000000002,12.918Q139.6328,14.5469,139.6328,17.582L139.6328,18.4844L131.043,18.4844Q131.0898,20.3594,132.1387,21.5137Q133.1875,22.668,134.8047,22.668Q135.9531,22.668,136.75,22.1992Q137.5469,21.7305,138.1445,20.957L139.4688,21.9883Q137.875,24.4375,134.6875,24.4375ZM134.418,13.0703Q133.1055,13.0703,132.2148,14.0254Q131.32420000000002,14.9805,131.11329999999998,16.7031L137.4648,16.7031L137.4648,16.5391Q137.3711,14.8867,136.57420000000002,13.9785Q135.7773,13.0703,134.418,13.0703Z" fill="#FF4081" fill-opacity="1"/></g></g><g><g></g><g clip-path="url(#master_svg2_24_435)"><g><g><path d="M34,44.187744140625L50,44.187744140625L50,46.187744140625L34,46.187744140625L34,44.187744140625ZM50,50.187744140625L34,50.187744140625L34,52.187744140625L50,52.187744140625L50,50.187744140625Z" fill-rule="evenodd" fill="#1F88D9" fill-opacity="1"/></g><g><path d="M28,40.187744140625L30,38.187744140625L54,38.187744140625L56,40.187744140625L56,56.187744140625L54,58.187744140625L30,58.187744140625L28,56.187744140625L28,40.187744140625ZM30,40.187744140625L30,56.187744140625L54,56.187744140625L54,40.187744140625L30,40.187744140625Z" fill-rule="evenodd" fill="#1F88D9" fill-opacity="1"/></g></g></g><g><path d="M9.05469,58.4328720703125L20.1172,58.4328720703125L20.1172,56.5422720703125L15.24219,56.5422720703125C14.35938,56.5422720703125,13.27344,56.635972070312505,12.36719,56.7062720703125C16.49219,52.7687720703125,19.273400000000002,49.1672720703125,19.273400000000002,45.6203720703125C19.273400000000002,42.4797720703125,17.28125,40.4328720703125,14.14062,40.4328720703125C11.90625,40.4328720703125,10.375,41.4485020703125,8.953125,43.0109720703125L10.22656,44.2687720703125C11.21094,43.0812720703125,12.4375,42.2141720703125,13.875,42.2141720703125C16.0625,42.2141720703125,17.11719,43.6828720703125,17.11719,45.7141720703125C17.11719,48.760972070312505,14.57031,52.2844720703125,9.05469,57.1437720703125L9.05469,58.4328720703125Z" fill="#FFFFFF" fill-opacity="1"/></g><g><path d="M73.46875,56.1719720703125Q73.28125,55.7969720703125,73.16406,54.8360720703125Q71.65234,56.4063720703125,69.55469,56.4063720703125Q67.67969,56.4063720703125,66.47852,55.345872070312495Q65.27734,54.2852720703125,65.27734,52.6563720703125Q65.27734,50.6758720703125,66.7832,49.5801720703125Q68.28906,48.4844720703125,71.01953,48.4844720703125L73.12891,48.4844720703125L73.12891,47.4883720703125Q73.12891,46.3516720703125,72.44922,45.6778720703125Q71.76953,45.0040720703125,70.44531,45.0040720703125Q69.28516,45.0040720703125,68.5,45.5899720703125Q67.71484,46.1758720703125,67.71484,47.0079720703125L65.53516,47.0079720703125Q65.53516,46.0586720703125,66.20898,45.1739720703125Q66.88281,44.2891720703125,68.03711,43.7735720703125Q69.19141,43.2579720703125,70.57422,43.2579720703125Q72.76562,43.2579720703125,74.0078,44.3536720703125Q75.25,45.4493720703125,75.2969,47.3711720703125L75.2969,53.207172070312495Q75.2969,54.9532720703125,75.7422,55.9844720703125L75.7422,56.1719720703125L73.46875,56.1719720703125ZM69.87109,54.519672070312495Q70.89062,54.519672070312495,71.80469,53.992272070312495Q72.71875,53.4649720703125,73.12891,52.6211720703125L73.12891,50.019672070312495L71.42969,50.019672070312495Q67.44531,50.019672070312495,67.44531,52.3516720703125Q67.44531,53.3711720703125,68.125,53.945472070312505Q68.80469,54.519672070312495,69.87109,54.519672070312495ZM83.7812,54.6368720703125Q84.9414,54.6368720703125,85.8086,53.9336720703125Q86.6758,53.230572070312505,86.7695,52.1758720703125L88.8203,52.1758720703125Q88.7617,53.2657720703125,88.0703,54.2500720703125Q87.3789,55.2344720703125,86.2246,55.820472070312505Q85.0703,56.4063720703125,83.7812,56.4063720703125Q81.1914,56.4063720703125,79.6621,54.6778720703125Q78.1328,52.9493720703125,78.1328,49.9493720703125L78.1328,49.5860720703125Q78.1328,47.7344720703125,78.8125,46.2930720703125Q79.4922,44.8516720703125,80.7637,44.0547720703125Q82.0352,43.2579720703125,83.7695,43.2579720703125Q85.9023,43.2579720703125,87.3145,44.5352720703125Q88.7266,45.8126720703125,88.8203,47.8516720703125L86.7695,47.8516720703125Q86.6758,46.6211720703125,85.8379,45.8301720703125Q85,45.0391720703125,83.7695,45.0391720703125Q82.1172,45.0391720703125,81.209,46.2286720703125Q80.3008,47.4180720703125,80.3008,49.668072070312505L80.3008,50.0782720703125Q80.3008,52.269672070312495,81.2031,53.4532720703125Q82.1055,54.6368720703125,83.7812,54.6368720703125ZM96.3438,54.6368720703125Q97.5039,54.6368720703125,98.3711,53.9336720703125Q99.23830000000001,53.230572070312505,99.332,52.1758720703125L101.3828,52.1758720703125Q101.32419999999999,53.2657720703125,100.6328,54.2500720703125Q99.9414,55.2344720703125,98.78710000000001,55.820472070312505Q97.6328,56.4063720703125,96.3438,56.4063720703125Q93.7539,56.4063720703125,92.2246,54.6778720703125Q90.6953,52.9493720703125,90.6953,49.9493720703125L90.6953,49.5860720703125Q90.6953,47.7344720703125,91.375,46.2930720703125Q92.0547,44.8516720703125,93.3262,44.0547720703125Q94.5977,43.2579720703125,96.332,43.2579720703125Q98.4648,43.2579720703125,99.87700000000001,44.5352720703125Q101.28909999999999,45.8126720703125,101.3828,47.8516720703125L99.332,47.8516720703125Q99.23830000000001,46.6211720703125,98.40039999999999,45.8301720703125Q97.5625,45.0391720703125,96.332,45.0391720703125Q94.6797,45.0391720703125,93.7715,46.2286720703125Q92.8633,47.4180720703125,92.8633,49.668072070312505L92.8633,50.0782720703125Q92.8633,52.269672070312495,93.7656,53.4532720703125Q94.668,54.6368720703125,96.3438,54.6368720703125ZM109.082,56.4063720703125Q106.5039,56.4063720703125,104.88669999999999,54.7129720703125Q103.2695,53.019672070312495,103.2695,50.1836720703125L103.2695,49.7852720703125Q103.2695,47.8985720703125,103.9902,46.4161720703125Q104.71090000000001,44.9336720703125,106.0059,44.0958720703125Q107.30080000000001,43.2579720703125,108.8125,43.2579720703125Q111.2852,43.2579720703125,112.6562,44.8868720703125Q114.0273,46.5157720703125,114.0273,49.5508720703125L114.0273,50.4532720703125L105.4375,50.4532720703125Q105.4844,52.3282720703125,106.5332,53.4825720703125Q107.582,54.6368720703125,109.19919999999999,54.6368720703125Q110.3477,54.6368720703125,111.1445,54.168072070312505Q111.9414,53.6993720703125,112.53909999999999,52.9258720703125L113.86330000000001,53.957172070312495Q112.2695,56.4063720703125,109.082,56.4063720703125ZM108.8125,45.0391720703125Q107.5,45.0391720703125,106.6094,45.9942720703125Q105.7188,46.9493720703125,105.5078,48.6719720703125L111.8594,48.6719720703125L111.8594,48.507972070312505Q111.7656,46.8555720703125,110.9688,45.9473720703125Q110.1719,45.0391720703125,108.8125,45.0391720703125ZM127.2461,49.9727720703125Q127.2461,52.867272070312495,125.9219,54.6368720703125Q124.5977,56.4063720703125,122.33590000000001,56.4063720703125Q120.0273,56.4063720703125,118.7031,54.9415720703125L118.7031,61.0469720703125L116.5352,61.0469720703125L116.5352,43.4922720703125L118.5156,43.4922720703125L118.6211,44.8985720703125Q119.9453,43.2579720703125,122.30080000000001,43.2579720703125Q124.58590000000001,43.2579720703125,125.916,44.9805720703125Q127.2461,46.7032720703125,127.2461,49.7735720703125L127.2461,49.9727720703125ZM125.0781,49.7266720703125Q125.0781,47.5821720703125,124.16409999999999,46.3399720703125Q123.25,45.0977720703125,121.6562,45.0977720703125Q119.6875,45.0977720703125,118.7031,46.8438720703125L118.7031,52.9024720703125Q119.67580000000001,54.6368720703125,121.6797,54.6368720703125Q123.23830000000001,54.6368720703125,124.1582,53.4004720703125Q125.0781,52.1641720703125,125.0781,49.7266720703125ZM132.9414,40.4219920703125L132.9414,43.4922720703125L135.3086,43.4922720703125L135.3086,45.1680720703125L132.9414,45.1680720703125L132.9414,53.0313720703125Q132.9414,53.793072070312505,133.2578,54.1739720703125Q133.57420000000002,54.554772070312495,134.33589999999998,54.554772070312495Q134.71089999999998,54.554772070312495,135.3672,54.4141720703125L135.3672,56.1719720703125Q134.51170000000002,56.4063720703125,133.7031,56.4063720703125Q132.25,56.4063720703125,131.51170000000002,55.5274720703125Q130.77339999999998,54.6485720703125,130.77339999999998,53.0313720703125L130.77339999999998,45.1680720703125L128.4648,45.1680720703125L128.4648,43.4922720703125L130.77339999999998,43.4922720703125L130.77339999999998,40.4219920703125L132.9414,40.4219920703125Z" fill="#FFFFFF" fill-opacity="1"/></g></g><g><g></g><g clip-path="url(#master_svg3_24_543)"><g><path d="M54.9,73.1566162109375L44.9,68.1566162109375L43.1,68.1566162109375L29.1,75.1566162109375L28,76.9366162109375L28,85.9366162109375L29.1,87.7366162109375L39.1,92.7366162109375L40.9,92.7366162109375L54.9,85.7366162109375L56,83.9366162109375L56,74.9366162109375L54.9,73.1566162109375ZM38.9,90.4366162109375L29.9,85.9366162109375L29.9,78.4966162109375L38.9,82.4966162109375L38.9,90.4366162109375ZM39.9,80.8366162109375L30.58,76.61661621093751L43.9,69.9366162109375L53.239999999999995,74.6166162109375L39.9,80.8366162109375ZM53.9,83.9366162109375L40.9,90.4366162109375L40.9,82.5766162109375L53.9,76.5766162109375L53.9,83.9366162109375Z" fill="#1F88D9" fill-opacity="1"/></g></g><g><path d="M14.3125,90.901744140625C17.45312,90.901744140625,19.976599999999998,89.034544140625,19.976599999999998,85.792344140625C19.976599999999998,83.30014414062501,18.3203,81.722044140625,16.25,81.222044140625L16.25,81.104844140625C18.125,80.456444140625,19.375,78.995544140625,19.375,76.831444140625C19.375,74.01114414062499,17.21094,72.401744140625,14.23438,72.401744140625C12.21875,72.401744140625,10.66406,73.292374140625,9.34375,74.495544140625L10.51562,75.909544140625C11.52344,74.88614414062499,12.75,74.183044140625,14.16406,74.183044140625C16.01562,74.183044140625,17.14062,75.300144140625,17.14062,77.003344140625C17.14062,78.925144140625,15.91406,80.401744140625,12.26562,80.401744140625L12.26562,82.089244140625C16.35156,82.089244140625,17.74219,83.518944140625,17.74219,85.722044140625C17.74219,87.792344140625,16.27344,89.081444140625,14.16406,89.081444140625C12.17188,89.081444140625,10.85156,88.089244140625,9.82031,87.003344140625L8.695312,88.464244140625C9.84375,89.753344140625,11.57031,90.901744140625,14.3125,90.901744140625Z" fill="#FFFFFF" fill-opacity="1"/></g><g><path d="M70.72656,86.605744140625Q71.88672,86.605744140625,72.75391,85.902544140625Q73.62109,85.199444140625,73.71484,84.144744140625L75.7656,84.144744140625Q75.707,85.234644140625,75.0156,86.218944140625Q74.3242,87.203344140625,73.16992,87.789344140625Q72.01562,88.375244140625,70.72656,88.375244140625Q68.13672,88.375244140625,66.60742,86.646744140625Q65.07812,84.918244140625,65.07812,81.918244140625L65.07812,81.554944140625Q65.07812,79.703344140625,65.75781,78.261944140625Q66.4375,76.820544140625,67.70898,76.023644140625Q68.98047,75.226844140625,70.71484,75.226844140625Q72.84766,75.226844140625,74.2598,76.504144140625Q75.6719,77.781544140625,75.7656,79.820544140625L73.71484,79.820544140625Q73.62109,78.590044140625,72.7832,77.799044140625Q71.94531,77.008044140625,70.71484,77.008044140625Q69.0625,77.008044140625,68.1543,78.197544140625Q67.24609,79.386944140625,67.24609,81.636944140625L67.24609,82.047144140625Q67.24609,84.238544140625,68.14844,85.422144140625Q69.05078,86.605744140625,70.72656,86.605744140625ZM77.6289,81.683844140625Q77.6289,79.820544140625,78.3613,78.332244140625Q79.0938,76.843944140625,80.4004,76.035444140625Q81.707,75.226844140625,83.3828,75.226844140625Q85.9727,75.226844140625,87.5723,77.019744140625Q89.1719,78.812744140625,89.1719,81.789344140625L89.1719,81.941644140625Q89.1719,83.793244140625,88.4629,85.263944140625Q87.7539,86.734644140625,86.4355,87.554944140625Q85.1172,88.375244140625,83.4062,88.375244140625Q80.8281,88.375244140625,79.2285,86.582244140625Q77.6289,84.789344140625,77.6289,81.836144140625L77.6289,81.683844140625ZM79.8086,81.941644140625Q79.8086,84.051044140625,80.7871,85.328344140625Q81.7656,86.605744140625,83.4062,86.605744140625Q85.0586,86.605744140625,86.0312,85.310744140625Q87.0039,84.015844140625,87.0039,81.683844140625Q87.0039,79.597944140625,86.0137,78.302944140625Q85.0234,77.008044140625,83.3828,77.008044140625Q81.7773,77.008044140625,80.793,78.285444140625Q79.8086,79.562744140625,79.8086,81.941644140625ZM93.9297,75.461144140625L93.9883,76.867444140625Q95.3828,75.226844140625,97.75,75.226844140625Q100.4102,75.226844140625,101.3711,77.265844140625Q102.0039,76.351844140625,103.0176,75.789344140625Q104.0312,75.226844140625,105.41409999999999,75.226844140625Q109.58590000000001,75.226844140625,109.6562,79.644744140625L109.6562,88.140844140625L107.48830000000001,88.140844140625L107.48830000000001,79.773644140625Q107.48830000000001,78.414344140625,106.8672,77.740444140625Q106.2461,77.066644140625,104.7812,77.066644140625Q103.57419999999999,77.066644140625,102.7773,77.787344140625Q101.9805,78.508044140625,101.85159999999999,79.726844140625L101.85159999999999,88.140844140625L99.6719,88.140844140625L99.6719,79.832244140625Q99.6719,77.066644140625,96.9648,77.066644140625Q94.832,77.066644140625,94.0469,78.883044140625L94.0469,88.140844140625L91.8789,88.140844140625L91.8789,75.461144140625L93.9297,75.461144140625ZM123.63669999999999,81.941644140625Q123.63669999999999,84.836144140625,122.3125,86.605744140625Q120.98830000000001,88.375244140625,118.72659999999999,88.375244140625Q116.418,88.375244140625,115.0938,86.910444140625L115.0938,93.015844140625L112.92580000000001,93.015844140625L112.92580000000001,75.461144140625L114.9062,75.461144140625L115.01169999999999,76.867444140625Q116.33590000000001,75.226844140625,118.6914,75.226844140625Q120.97659999999999,75.226844140625,122.3066,76.949444140625Q123.63669999999999,78.672144140625,123.63669999999999,81.742444140625L123.63669999999999,81.941644140625ZM121.4688,81.695544140625Q121.4688,79.551044140625,120.5547,78.308844140625Q119.6406,77.066644140625,118.0469,77.066644140625Q116.0781,77.066644140625,115.0938,78.812744140625L115.0938,84.871344140625Q116.0664,86.605744140625,118.0703,86.605744140625Q119.6289,86.605744140625,120.5488,85.369344140625Q121.4688,84.133044140625,121.4688,81.695544140625ZM128.7461,88.140844140625L126.5781,88.140844140625L126.5781,70.140864140625L128.7461,70.140864140625L128.7461,88.140844140625ZM137.47660000000002,88.375244140625Q134.89839999999998,88.375244140625,133.2812,86.681844140625Q131.66410000000002,84.988544140625,131.66410000000002,82.152544140625L131.66410000000002,81.754144140625Q131.66410000000002,79.867444140625,132.38479999999998,78.385044140625Q133.1055,76.902544140625,134.4004,76.064744140625Q135.6953,75.226844140625,137.207,75.226844140625Q139.6797,75.226844140625,141.05079999999998,76.855744140625Q142.4219,78.484644140625,142.4219,81.519744140625L142.4219,82.422144140625L133.832,82.422144140625Q133.8789,84.297144140625,134.92770000000002,85.451444140625Q135.97660000000002,86.605744140625,137.5938,86.605744140625Q138.7422,86.605744140625,139.53910000000002,86.136944140625Q140.33589999999998,85.668244140625,140.9336,84.894744140625L142.2578,85.926044140625Q140.66410000000002,88.375244140625,137.47660000000002,88.375244140625ZM137.207,77.008044140625Q135.8945,77.008044140625,135.0039,77.963144140625Q134.11329999999998,78.918244140625,133.9023,80.640844140625L140.2539,80.640844140625L140.2539,80.476844140625Q140.1602,78.824444140625,139.36329999999998,77.916244140625Q138.5664,77.008044140625,137.207,77.008044140625ZM147.8711,72.390864140625L147.8711,75.461144140625L150.23829999999998,75.461144140625L150.23829999999998,77.136944140625L147.8711,77.136944140625L147.8711,85.000244140625Q147.8711,85.761944140625,148.1875,86.142844140625Q148.5039,86.523644140625,149.2656,86.523644140625Q149.6406,86.523644140625,150.2969,86.383044140625L150.2969,88.140844140625Q149.4414,88.375244140625,148.6328,88.375244140625Q147.1797,88.375244140625,146.4414,87.496344140625Q145.7031,86.617444140625,145.7031,85.000244140625L145.7031,77.136944140625L143.3945,77.136944140625L143.3945,75.461144140625L145.7031,75.461144140625L145.7031,72.390864140625L147.8711,72.390864140625ZM155.125,88.140844140625L152.957,88.140844140625L152.957,75.461144140625L155.125,75.461144140625L155.125,88.140844140625ZM152.7812,72.097904140625Q152.7812,71.570554140625,153.1035,71.207274140625Q153.42579999999998,70.843994140625,154.0586,70.843994140625Q154.6914,70.843994140625,155.0195,71.207274140625Q155.3477,71.570554140625,155.3477,72.097904140625Q155.3477,72.625244140625,155.0195,72.976804140625Q154.6914,73.328364140625,154.0586,73.328364140625Q153.42579999999998,73.328364140625,153.1035,72.976804140625Q152.7812,72.625244140625,152.7812,72.097904140625ZM158.0195,81.683844140625Q158.0195,79.820544140625,158.752,78.332244140625Q159.4844,76.843944140625,160.791,76.035444140625Q162.0977,75.226844140625,163.77339999999998,75.226844140625Q166.363,75.226844140625,167.963,77.019744140625Q169.562,78.812744140625,169.562,81.789344140625L169.562,81.941644140625Q169.562,83.793244140625,168.85399999999998,85.263944140625Q168.14499999999998,86.734644140625,166.826,87.554944140625Q165.50799999999998,88.375244140625,163.7969,88.375244140625Q161.2188,88.375244140625,159.6191,86.582244140625Q158.0195,84.789344140625,158.0195,81.836144140625L158.0195,81.683844140625ZM160.19920000000002,81.941644140625Q160.19920000000002,84.051044140625,161.17770000000002,85.328344140625Q162.1562,86.605744140625,163.7969,86.605744140625Q165.449,86.605744140625,166.422,85.310744140625Q167.39499999999998,84.015844140625,167.39499999999998,81.683844140625Q167.39499999999998,79.597944140625,166.404,78.302944140625Q165.414,77.008044140625,163.77339999999998,77.008044140625Q162.168,77.008044140625,161.1836,78.285444140625Q160.19920000000002,79.562744140625,160.19920000000002,81.941644140625ZM174.332,75.461144140625L174.402,77.054944140625Q175.85500000000002,75.226844140625,178.199,75.226844140625Q182.219,75.226844140625,182.25400000000002,79.761944140625L182.25400000000002,88.140844140625L180.086,88.140844140625L180.086,79.750244140625Q180.074,78.379144140625,179.459,77.722944140625Q178.844,77.066644140625,177.543,77.066644140625Q176.488,77.066644140625,175.691,77.629144140625Q174.89499999999998,78.191644140625,174.449,79.105744140625L174.449,88.140844140625L172.281,88.140844140625L172.281,75.461144140625L174.332,75.461144140625Z" fill="#FFFFFF" fill-opacity="1"/></g></g><g><g></g><g clip-path="url(#master_svg4_24_561)"><g><path d="M48.68,115.5453662109375L50.1,115.5453662109375L55.44,110.2053662109375L55.44,108.7853662109375L52.760000000000005,106.1253662109375L51.36,106.1253662109375L47.72,109.7453662109375L37.72,109.7453662109375L37.72,107.2453662109375L41.44,103.5453662109375L41.44,102.1253662109375L37.44,98.1253662109375L36,98.1253662109375L28,106.1253662109375L28,107.5453662109375L32,111.5453662109375L33.42,111.5453662109375L35.7,109.2453662109375L35.7,120.8253662109375L36.7,121.8253662109375L46,121.8253662109375L46,122.8653662109375L48.66,125.5453662109375L50.08,125.5453662109375L55.42,120.2053662109375L55.42,118.7853662109375L52.739999999999995,116.1253662109375L51.34,116.1253662109375L47.620000000000005,119.8253662109375L37.62,119.8253662109375L37.62,111.8253662109375L46,111.8253662109375L46,112.7853662109375L48.68,115.5453662109375ZM52.06,108.2453662109375L53.32,109.5053662109375L49.32,113.5053662109375L48.06,112.2453662109375L52.06,108.2453662109375ZM52.06,118.2453662109375L53.32,119.5053662109375L49.32,123.5053662109375L48.06,122.2453662109375L52.06,118.2453662109375ZM32.7,109.4253662109375L30.12,106.8253662109375L36.7,100.2453662109375L39.3,102.8253662109375L32.7,109.4253662109375Z" fill="#AA7425" fill-opacity="1"/></g></g><g><path d="M16.15625,122.370494140625L18.2188,122.370494140625L18.2188,117.628294140625L20.5703,117.628294140625L20.5703,115.870494140625L18.2188,115.870494140625L18.2188,104.870494140625L15.79688,104.870494140625L8.476562,116.182994140625L8.476562,117.628294140625L16.15625,117.628294140625L16.15625,122.370494140625ZM16.15625,115.870494140625L10.75781,115.870494140625L14.76562,109.870494140625C15.26562,109.003294140625,15.75,108.112694140625,16.17969,107.276794140625L16.27344,107.276794140625C16.22656,108.159594140625,16.15625,109.60489414062499,16.15625,110.472094140625L16.15625,115.870494140625Z" fill="#FFFFFF" fill-opacity="1"/></g><g><path d="M76.8672,117.121294140625L79.3047,107.429894140625L81.4727,107.429894140625L77.7812,120.109594140625L76.0234,120.109594140625L72.94141,110.500294140625L69.94141,120.109594140625L68.18359,120.109594140625L64.503906,107.429894140625L66.66016,107.429894140625L69.15625,116.922094140625L72.10938,107.429894140625L73.85547,107.429894140625L76.8672,117.121294140625ZM86.0312,120.109594140625L83.8633,120.109594140625L83.8633,107.429894140625L86.0312,107.429894140625L86.0312,120.109594140625ZM83.6875,104.066654140625Q83.6875,103.539304140625,84.0098,103.176024140625Q84.332,102.812744140625,84.9648,102.812744140625Q85.5977,102.812744140625,85.9258,103.176024140625Q86.2539,103.539304140625,86.2539,104.066654140625Q86.2539,104.593994140625,85.9258,104.945554140625Q85.5977,105.297114140625,84.9648,105.297114140625Q84.332,105.297114140625,84.0098,104.945554140625Q83.6875,104.593994140625,83.6875,104.066654140625ZM92.4414,104.359614140625L92.4414,107.429894140625L94.8086,107.429894140625L94.8086,109.105694140625L92.4414,109.105694140625L92.4414,116.968994140625Q92.4414,117.730694140625,92.7578,118.111594140625Q93.0742,118.492394140625,93.8359,118.492394140625Q94.2109,118.492394140625,94.8672,118.351794140625L94.8672,120.109594140625Q94.0117,120.343994140625,93.2031,120.343994140625Q91.75,120.343994140625,91.0117,119.465094140625Q90.2734,118.586194140625,90.2734,116.968994140625L90.2734,109.105694140625L87.9648,109.105694140625L87.9648,107.429894140625L90.2734,107.429894140625L90.2734,104.359614140625L92.4414,104.359614140625ZM99.5078,108.965094140625Q100.94919999999999,107.195594140625,103.2578,107.195594140625Q107.2773,107.195594140625,107.3125,111.730694140625L107.3125,120.109594140625L105.1445,120.109594140625L105.1445,111.718994140625Q105.1328,110.347894140625,104.5176,109.691694140625Q103.9023,109.035394140625,102.60159999999999,109.035394140625Q101.5469,109.035394140625,100.75,109.597894140625Q99.9531,110.160394140625,99.5078,111.074494140625L99.5078,120.109594140625L97.3398,120.109594140625L97.3398,102.109614140625L99.5078,102.109614140625L99.5078,108.965094140625Z" fill="#FFFFFF" fill-opacity="1"/></g></g><g><g></g><g clip-path="url(#master_svg5_24_575)"><g><path d="M48.992023437499995,136.0941224098175C45.5122234375,136.0895662309375,42.5605234375,138.6487862109375,42.0720234375,142.0941262109375L35.8720034375,142.0941262109375C35.1753434375,139.3959462109375,32.0022434375,138.2191362109375,29.7146934375,139.8105562109375C27.4271354375,141.4019762109375,27.4271354375,144.7862662109375,29.7146834375,146.3777162109375C32.0022434375,147.9691162109375,35.1753334375,146.79231621093749,35.8720034375,144.0941262109375L42.0720234375,144.0941262109375C42.605923437499996,147.7928162109375,45.9510234375,150.4199162109375,49.670823437500005,150.0619162109375C53.3907234375,149.7039162109375,56.1733234375,146.4869162109375,55.9919234375,142.7543062109375C55.810523437499995,139.0216462109375,52.729023437500004,136.0897455209375,48.992023437499995,136.0941224098175ZM48.992023437499995,148.0941162109375C46.2306234375,148.0941162109375,43.9920234375,145.8555462109375,43.9920234375,143.0941262109375C43.9920234375,140.3326962109375,46.2306234375,138.0941262109375,48.992023437499995,138.0941262109375C51.753423437500004,138.0941262109375,53.992023437499995,140.3326962109375,53.992023437499995,143.0941262109375C53.992023437499995,145.8555462109375,51.753423437500004,148.0941162109375,48.992023437499995,148.0941162109375Z" fill="#1F88D9" fill-opacity="1"/></g></g><g><path d="M14.28125,154.839244140625C17.23438,154.839244140625,20.0469,152.659544140625,20.0469,148.808044140625C20.0469,144.917344140625,17.64844,143.190844140625,14.74219,143.190844140625C13.6875,143.190844140625,12.89062,143.448644140625,12.10156,143.886144140625L12.55469,138.714244140625L19.1797,138.714244140625L19.1797,136.839244140625L10.63281,136.839244140625L10.0625,145.128344140625L11.23438,145.878344140625C12.24219,145.206444140625,12.99219,144.839244140625,14.16406,144.839244140625C16.375,144.839244140625,17.8125,146.331444140625,17.8125,148.854844140625C17.8125,151.433044140625,16.15625,153.018944140625,14.07031,153.018944140625C12.03125,153.018944140625,10.73438,152.081444140625,9.75,151.073644140625L8.640625,152.511144140625C9.84375,153.690844140625,11.52344,154.839244140625,14.28125,154.839244140625Z" fill="#FFFFFF" fill-opacity="1"/></g><g><path d="M67.69141,139.398644140625L67.76172,140.992444140625Q69.21484,139.164344140625,71.55859,139.164344140625Q75.5781,139.164344140625,75.6133,143.699444140625L75.6133,152.078344140625L73.44531,152.078344140625L73.44531,143.687744140625Q73.43359,142.316644140625,72.81836,141.660444140625Q72.20312,141.004144140625,70.90234,141.004144140625Q69.84766,141.004144140625,69.05078,141.566644140625Q68.25391,142.129144140625,67.80859,143.043244140625L67.80859,152.078344140625L65.64062,152.078344140625L65.64062,139.398644140625L67.69141,139.398644140625ZM86.7109,150.824444140625Q85.4453,152.312744140625,82.9961,152.312744140625Q80.9688,152.312744140625,79.9082,151.13504414062498Q78.8477,149.957244140625,78.8359,147.648644140625L78.8359,139.398644140625L81.0039,139.398644140625L81.0039,147.590044140625Q81.0039,150.472944140625,83.3477,150.472944140625Q85.832,150.472944140625,86.6523,148.621344140625L86.6523,139.398644140625L88.8203,139.398644140625L88.8203,152.078344140625L86.7578,152.078344140625L86.7109,150.824444140625ZM94.1523,139.398644140625L94.2109,140.804944140625Q95.6055,139.164344140625,97.9727,139.164344140625Q100.6328,139.164344140625,101.5938,141.203344140625Q102.22659999999999,140.289344140625,103.2402,139.726844140625Q104.2539,139.164344140625,105.63669999999999,139.164344140625Q109.8086,139.164344140625,109.8789,143.582244140625L109.8789,152.078344140625L107.71090000000001,152.078344140625L107.71090000000001,143.711144140625Q107.71090000000001,142.351844140625,107.0898,141.677944140625Q106.4688,141.004144140625,105.0039,141.004144140625Q103.7969,141.004144140625,103,141.724844140625Q102.2031,142.445544140625,102.07419999999999,143.664344140625L102.07419999999999,152.078344140625L99.8945,152.078344140625L99.8945,143.769744140625Q99.8945,141.004144140625,97.1875,141.004144140625Q95.0547,141.004144140625,94.2695,142.820544140625L94.2695,152.078344140625L92.1016,152.078344140625L92.1016,139.398644140625L94.1523,139.398644140625ZM123.8828,145.879144140625Q123.8828,148.785444140625,122.5469,150.549044140625Q121.21090000000001,152.312744140625,118.96090000000001,152.312744140625Q116.5586,152.312744140625,115.2461,150.613544140625L115.1406,152.078344140625L113.14840000000001,152.078344140625L113.14840000000001,134.078364140625L115.3164,134.078364140625L115.3164,140.793244140625Q116.6289,139.164344140625,118.9375,139.164344140625Q121.2461,139.164344140625,122.56450000000001,140.910444140625Q123.8828,142.656444140625,123.8828,145.691644140625L123.8828,145.879144140625ZM121.7148,145.633044140625Q121.7148,143.418244140625,120.8594,142.211144140625Q120.0039,141.004144140625,118.39840000000001,141.004144140625Q116.2539,141.004144140625,115.3164,142.996344140625L115.3164,148.480744140625Q116.3125,150.472944140625,118.4219,150.472944140625Q119.9805,150.472944140625,120.8477,149.265844140625Q121.7148,148.058844140625,121.7148,145.633044140625ZM131.875,152.312744140625Q129.2969,152.312744140625,127.6797,150.619344140625Q126.0625,148.926044140625,126.0625,146.090044140625L126.0625,145.691644140625Q126.0625,143.804944140625,126.7832,142.322544140625Q127.5039,140.840044140625,128.7988,140.002244140625Q130.0938,139.164344140625,131.6055,139.164344140625Q134.0781,139.164344140625,135.44920000000002,140.793244140625Q136.8203,142.422144140625,136.8203,145.457244140625L136.8203,146.359644140625L128.2305,146.359644140625Q128.2773,148.234644140625,129.3262,149.388944140625Q130.375,150.543244140625,131.9922,150.543244140625Q133.1406,150.543244140625,133.9375,150.074444140625Q134.7344,149.605744140625,135.332,148.832244140625L136.6562,149.863544140625Q135.0625,152.312744140625,131.875,152.312744140625ZM131.6055,140.945544140625Q130.293,140.945544140625,129.4023,141.900644140625Q128.51170000000002,142.855744140625,128.30079999999998,144.578344140625L134.6523,144.578344140625L134.6523,144.414344140625Q134.5586,142.761944140625,133.76170000000002,141.853744140625Q132.9648,140.945544140625,131.6055,140.945544140625ZM145.457,141.344044140625Q144.9648,141.261944140625,144.3906,141.261944140625Q142.2578,141.261944140625,141.4961,143.078344140625L141.4961,152.078344140625L139.3281,152.078344140625L139.3281,139.398644140625L141.4375,139.398644140625L141.4727,140.863544140625Q142.53910000000002,139.164344140625,144.4961,139.164344140625Q145.1289,139.164344140625,145.457,139.328344140625L145.457,141.344044140625Z" fill="#FFFFFF" fill-opacity="1"/></g></g><g><g></g><g clip-path="url(#master_svg6_24_589)"><g><path d="M31.61406,190.0129455078125C30.66087,189.9995455078125,29.75438,189.5979455078125,29.10406,188.9009455078125C28.477595,188.3305455078125,28.0891103,187.54494550781249,28.0160612,186.7009455078125C27.9314569,185.8282455078125,28.183274,184.9561455078125,28.720061,184.2629455078125C31.13606,181.7229455078125,35.894059999999996,176.9629455078125,39.3561,173.5729455078125C38.619,171.5807655078125,38.6533,169.3850855078125,39.4521,167.4169055078125C40.109,165.7798855078125,41.2769,164.3987155078125,42.7821,163.4789055078125C45.1809,161.8894975078125,48.22,161.6186845078125,50.8621,162.7589025078125L52.0961,163.2949055078125L46.3641,169.1969055078125L48.8741,171.7149055078125L54.762100000000004,165.9609055078125L55.296099999999996,167.1989055078125C56.2067,169.3068155078125,56.2355,171.6915955078125,55.3761,173.8209455078125C54.9534,174.8631455078125,54.3257,175.8099455078125,53.530100000000004,176.6049455078125C53.0792,177.0459455078125,52.580799999999996,177.4356455078125,52.0441,177.7669455078125C49.793099999999995,179.2704455078125,46.957300000000004,179.6022455078125,44.420100000000005,178.6589455078125C42.2241,180.8829455078125,36.74006,186.4029455078125,33.78006,189.1669455078125C33.18609,189.7060455078125,32.4142,190.0072455078125,31.61206,190.0129455078125L31.61406,190.0129455078125ZM47.4901,163.9189055078125C46.1742,163.9156255078125,44.887100000000004,164.3033655078125,43.7921,165.0329055078125C43.3661,165.2929055078125,42.9681,165.6009055078125,42.6101,165.9489055078125C40.6554,167.9187155078125,40.1314,170.8960955078125,41.296099999999996,173.4149455078125L41.5661,174.0089455078125L41.1001,174.4629455078125C37.62406,177.8569455078125,32.56206,182.9029455078125,30.13006,185.4709455078125C29.68094,186.1385455078125,29.79367,187.0352455078125,30.39406,187.5709455078125C30.5605,187.7568455078125,30.76336,187.9066455078125,30.99006,188.0109455078125C31.19006,188.0989455078125,31.40806,188.1489455078125,31.62806,188.1549455078125C31.96184,188.1464455078125,32.28137,188.0178455078125,32.528059999999996,187.7929455078125C35.67406,184.8549455078125,41.7521,178.7149455078125,43.5361,176.9129455078125L43.9961,176.4489455078125L44.5841,176.7189455078125C46.6743,177.6929455078125,49.1221,177.5001455078125,51.034099999999995,176.2109455078125C51.4618,175.9471455078125,51.8583,175.6358455078125,52.2161,175.28294550781249C53.4679,174.0348455078125,54.163,172.3344455078125,54.1441,170.5669055078125C54.1441,170.13690550781251,54.1021,169.7069055078125,54.0161,169.2829055078125L48.8601,174.31294550781251L43.7581,169.2189055078125L48.7881,164.0389055078125C48.3598,163.9558555078125,47.9243,163.9156555078125,47.4881,163.9189055078125L47.4901,163.9189055078125Z" fill="#1F88D9" fill-opacity="1"/></g></g><g><path d="M15.21875,186.807994140625C17.95312,186.807994140625,20.289099999999998,184.487694140625,20.289099999999998,180.964294140625C20.289099999999998,177.143894140625,18.3672,175.307994140625,15.39062,175.307994140625C14.02344,175.307994140625,12.48438,176.104894140625,11.40625,177.440794140625C11.5,171.964294140625,13.49219,170.112694140625,15.9375,170.112694140625C17,170.112694140625,18.0547,170.643894140625,18.726599999999998,171.464294140625L19.976599999999998,170.112694140625C18.9922,169.057994140625,17.67188,168.307994140625,15.84375,168.307994140625C12.4375,168.307994140625,9.34375,170.932994140625,9.34375,177.862694140625C9.34375,183.870494140625,11.85938,186.807994140625,15.21875,186.807994140625ZM11.45312,179.253294140625C12.60156,177.565794140625,13.94531,176.940794140625,15.03125,176.940794140625C17.16406,176.940794140625,18.1953,178.503294140625,18.1953,180.964294140625C18.1953,183.448594140625,16.89844,185.081394140625,15.21875,185.081394140625C13.01562,185.081394140625,11.69531,183.026794140625,11.45312,179.253294140625Z" fill="#FFFFFF" fill-opacity="1"/></g><g><path d="M69.17969,178.175994140625L67.82031,179.593994140625L67.82031,184.047094140625L65.65234,184.047094140625L65.65234,166.047114140625L67.82031,166.047114140625L67.82031,176.933794140625L68.98047,175.539294140625L72.92969,171.367394140625L75.5664,171.367394140625L70.63281,176.664294140625L76.1406,184.047094140625L73.59766,184.047094140625L69.17969,178.175994140625ZM83.0664,184.281494140625Q80.4883,184.281494140625,78.8711,182.588094140625Q77.2539,180.894794140625,77.2539,178.058794140625L77.2539,177.660394140625Q77.2539,175.773694140625,77.9746,174.291294140625Q78.6953,172.808794140625,79.9902,171.970994140625Q81.2852,171.133094140625,82.7969,171.133094140625Q85.2695,171.133094140625,86.6406,172.761994140625Q88.0117,174.390894140625,88.0117,177.425994140625L88.0117,178.328394140625L79.4219,178.328394140625Q79.4688,180.203394140625,80.5176,181.357694140625Q81.5664,182.511994140625,83.1836,182.511994140625Q84.332,182.511994140625,85.1289,182.043194140625Q85.9258,181.574494140625,86.5234,180.800994140625L87.8477,181.832294140625Q86.2539,184.281494140625,83.0664,184.281494140625ZM82.7969,172.914294140625Q81.4844,172.914294140625,80.5938,173.869394140625Q79.7031,174.824494140625,79.4922,176.547094140625L85.8438,176.547094140625L85.8438,176.383094140625Q85.75,174.730694140625,84.9531,173.822494140625Q84.1562,172.914294140625,82.7969,172.914294140625ZM94.668,180.871294140625L97.6211,171.367394140625L99.9414,171.367394140625L94.8438,186.004194140625Q93.6602,189.168194140625,91.082,189.168194140625L90.6719,189.133094140625L89.8633,188.980694140625L89.8633,187.222894140625L90.4492,187.269794140625Q91.5508,187.269794140625,92.166,186.824494140625Q92.7812,186.379194140625,93.1797,185.195594140625L93.6602,183.906494140625L89.1367,171.367394140625L91.5039,171.367394140625L94.668,180.871294140625ZM109.2578,180.683794140625Q109.2578,179.804894140625,108.5957,179.318594140625Q107.9336,178.832294140625,106.28710000000001,178.480694140625Q104.6406,178.129194140625,103.6738,177.636994140625Q102.707,177.144794140625,102.2441,176.465094140625Q101.7812,175.785394140625,101.7812,174.847894140625Q101.7812,173.289294140625,103.09960000000001,172.211194140625Q104.418,171.133094140625,106.4688,171.133094140625Q108.625,171.133094140625,109.9668,172.246294140625Q111.3086,173.359594140625,111.3086,175.093994140625L109.1289,175.093994140625Q109.1289,174.203394140625,108.37299999999999,173.558794140625Q107.6172,172.914294140625,106.4688,172.914294140625Q105.2852,172.914294140625,104.6172,173.429894140625Q103.94919999999999,173.945594140625,103.94919999999999,174.777594140625Q103.94919999999999,175.562794140625,104.5703,175.961194140625Q105.1914,176.359594140625,106.81450000000001,176.722894140625Q108.4375,177.086194140625,109.4453,177.590094140625Q110.4531,178.093994140625,110.93950000000001,178.802994140625Q111.42580000000001,179.511994140625,111.42580000000001,180.531494140625Q111.42580000000001,182.230694140625,110.0664,183.256094140625Q108.707,184.281494140625,106.53909999999999,184.281494140625Q105.0156,184.281494140625,103.8438,183.742394140625Q102.6719,183.203394140625,102.0098,182.23659414062502Q101.3477,181.269794140625,101.3477,180.144794140625L103.5156,180.144794140625Q103.57419999999999,181.234594140625,104.3887,181.873294140625Q105.2031,182.511994140625,106.53909999999999,182.511994140625Q107.7695,182.511994140625,108.5137,182.01389414062498Q109.2578,181.515894140625,109.2578,180.683794140625Z" fill="#FFFFFF" fill-opacity="1"/></g></g><g><g></g><g clip-path="url(#master_svg7_24_603)"><g><path d="M54,196.0316162109375L42,196.0316162109375L40,198.0316162109375L40,204.0316162109375L42,204.0316162109375L42,198.0316162109375L54,198.0316162109375L54,208.0316162109375L46,208.0316162109375L46,210.0316162109375L54,210.0316162109375L56,208.0316162109375L56,198.0316162109375L54,196.0316162109375ZM44,204.0316162109375L52,204.0316162109375L52,206.0316162109375L44.82,206.0316162109375L44,205.2116162109375L44,204.0316162109375ZM40,206.0316162109375L30,206.0316162109375L28,208.0316162109375L28,218.0316162109375L30,220.0316162109375L42,220.0316162109375L44,218.0316162109375L44,208.0316162109375L42,206.0316162109375L40,206.0316162109375ZM42,218.0316162109375L30,218.0316162109375L30,208.0316162109375L42,208.0316162109375L42,218.0316162109375ZM32,210.0316162109375L40,210.0316162109375L40,212.0316162109375L32,212.0316162109375L32,210.0316162109375ZM32,214.0316162109375L40,214.0316162109375L40,216.0316162109375L32,216.0316162109375L32,214.0316162109375ZM44,200.0316162109375L52,200.0316162109375L52,202.0316162109375L44,202.0316162109375L44,200.0316162109375Z" fill-rule="evenodd" fill="#AA7425" fill-opacity="1"/></g></g><g><path d="M12.75,218.276744140625L15.03125,218.276744140625C15.32031,211.433044140625,16.0625,207.354844140625,20.1875,202.097044140625L20.1875,200.776744140625L9.17188,200.776744140625L9.17188,202.651744140625L17.71875,202.651744140625C14.25781,207.425144140625,13.0625,211.651744140625,12.75,218.276744140625Z" fill="#FFFFFF" fill-opacity="1"/></g><g><path d="M76.3516,209.816644140625Q76.3516,212.711144140625,75.0273,214.480744140625Q73.70312,216.250244140625,71.44141,216.250244140625Q69.13281,216.250244140625,67.80859,214.785444140625L67.80859,220.890844140625L65.64062,220.890844140625L65.64062,203.336144140625L67.62109,203.336144140625L67.72656,204.742444140625Q69.05078,203.101844140625,71.40625,203.101844140625Q73.69141,203.101844140625,75.0215,204.824444140625Q76.3516,206.547144140625,76.3516,209.617444140625L76.3516,209.816644140625ZM74.1836,209.570544140625Q74.1836,207.426044140625,73.26953,206.183844140625Q72.35547,204.941644140625,70.76172,204.941644140625Q68.79297,204.941644140625,67.80859,206.687744140625L67.80859,212.746344140625Q68.78125,214.480744140625,70.78516,214.480744140625Q72.34375,214.480744140625,73.26367,213.244344140625Q74.1836,212.008044140625,74.1836,209.570544140625ZM78.5312,209.558844140625Q78.5312,207.695544140625,79.2637,206.207244140625Q79.9961,204.718944140625,81.3027,203.910444140625Q82.6094,203.101844140625,84.2852,203.101844140625Q86.875,203.101844140625,88.4746,204.894744140625Q90.0742,206.687744140625,90.0742,209.664344140625L90.0742,209.816644140625Q90.0742,211.668244140625,89.3652,213.138944140625Q88.6562,214.609644140625,87.3379,215.429944140625Q86.0195,216.250244140625,84.3086,216.250244140625Q81.7305,216.250244140625,80.1309,214.457244140625Q78.5312,212.664344140625,78.5312,209.711144140625L78.5312,209.558844140625ZM80.7109,209.816644140625Q80.7109,211.926044140625,81.6895,213.203344140625Q82.668,214.480744140625,84.3086,214.480744140625Q85.9609,214.480744140625,86.9336,213.185744140625Q87.9062,211.890844140625,87.9062,209.558844140625Q87.9062,207.472944140625,86.916,206.177944140625Q85.9258,204.883044140625,84.2852,204.883044140625Q82.6797,204.883044140625,81.6953,206.160444140625Q80.7109,207.437744140625,80.7109,209.816644140625ZM104.0195,213.027544140625L106.457,203.336144140625L108.625,203.336144140625L104.9336,216.015844140625L103.17580000000001,216.015844140625L100.0938,206.406544140625L97.0938,216.015844140625L95.3359,216.015844140625L91.6562,203.336144140625L93.8125,203.336144140625L96.3086,212.828344140625L99.26169999999999,203.336144140625L101.0078,203.336144140625L104.0195,213.027544140625ZM116.0898,216.250244140625Q113.51169999999999,216.250244140625,111.8945,214.556844140625Q110.2773,212.863544140625,110.2773,210.027544140625L110.2773,209.629144140625Q110.2773,207.742444140625,110.99799999999999,206.260044140625Q111.7188,204.777544140625,113.0137,203.939744140625Q114.3086,203.101844140625,115.8203,203.101844140625Q118.293,203.101844140625,119.66409999999999,204.730744140625Q121.0352,206.359644140625,121.0352,209.394744140625L121.0352,210.297144140625L112.4453,210.297144140625Q112.4922,212.172144140625,113.541,213.326444140625Q114.5898,214.480744140625,116.207,214.480744140625Q117.3555,214.480744140625,118.1523,214.011944140625Q118.94919999999999,213.543244140625,119.5469,212.769744140625L120.8711,213.801044140625Q119.2773,216.250244140625,116.0898,216.250244140625ZM115.8203,204.883044140625Q114.5078,204.883044140625,113.6172,205.838144140625Q112.72659999999999,206.793244140625,112.5156,208.515844140625L118.8672,208.515844140625L118.8672,208.351844140625Q118.77340000000001,206.699444140625,117.97659999999999,205.791244140625Q117.1797,204.883044140625,115.8203,204.883044140625ZM129.6719,205.281544140625Q129.1797,205.199444140625,128.6055,205.199444140625Q126.4727,205.199444140625,125.71090000000001,207.015844140625L125.71090000000001,216.015844140625L123.543,216.015844140625L123.543,203.336144140625L125.6523,203.336144140625L125.6875,204.801044140625Q126.7539,203.101844140625,128.71089999999998,203.101844140625Q129.3438,203.101844140625,129.6719,203.265844140625L129.6719,205.281544140625ZM132.0039,216.015844140625L132.0039,198.953364140625L137.582,198.953364140625Q140.3594,198.953364140625,141.75979999999998,200.101804140625Q143.1602,201.250244140625,143.1602,203.500244140625Q143.1602,204.695544140625,142.4805,205.615444140625Q141.80079999999998,206.535444140625,140.6289,207.039344140625Q142.01170000000002,207.426044140625,142.8145,208.51004414062498Q143.6172,209.593944140625,143.6172,211.093944140625Q143.6172,213.390844140625,142.1289,214.703344140625Q140.6406,216.015844140625,137.9219,216.015844140625L132.0039,216.015844140625ZM134.2539,208.035444140625L134.2539,214.176044140625L137.9688,214.176044140625Q139.53910000000002,214.176044140625,140.44729999999998,213.361544140625Q141.3555,212.547144140625,141.3555,211.117444140625Q141.3555,208.035444140625,138.0039,208.035444140625L134.2539,208.035444140625ZM134.2539,206.230744140625L137.6523,206.230744140625Q139.1289,206.230744140625,140.0137,205.492444140625Q140.89839999999998,204.754144140625,140.89839999999998,203.488544140625Q140.89839999999998,202.082244140625,140.0781,201.443604140625Q139.2578,200.804934140625,137.582,200.804934140625L134.2539,200.804934140625L134.2539,206.230744140625ZM150.7539,212.840044140625L153.707,203.336144140625L156.0273,203.336144140625L150.9297,217.972944140625Q149.7461,221.136944140625,147.168,221.136944140625L146.7578,221.101844140625L145.94920000000002,220.949444140625L145.94920000000002,219.191644140625L146.5352,219.238544140625Q147.63670000000002,219.238544140625,148.252,218.793244140625Q148.8672,218.347944140625,149.2656,217.164344140625L149.7461,215.875244140625L145.2227,203.336144140625L147.5898,203.336144140625L150.7539,212.840044140625Z" fill="#FFFFFF" fill-opacity="1"/></g></g><g><g></g><g style="opacity:0.800000011920929;" clip-path="url(#master_svg8_24_617)"><g><path d="M40.446034374999996,245.8660732421875C41.098034375,246.2500732421875,41.844034375,246.4460732421875,42.600034375,246.4300732421875C43.970334375,246.4572732421875,45.272234375,245.8323732421875,46.108034375,244.7460732421875C47.018534375,243.5304732421875,47.480634375,242.0374732421875,47.416034374999995,240.5200732421875C47.482534375,239.1725632421875,47.074934375,237.8443132421875,46.264034375,236.7660732421875C45.468534375000004,235.78715324218751,44.256134375,235.2432732421875,42.996034375,235.3000732421875C41.876334375,235.2937132421875,40.792934375,235.6970432421875,39.950034375,236.4340732421875L39.950034375,230.9500732421875L37.968044375,230.9500732421875L37.968044375,246.2000732421875L39.958034375,246.2000732421875L39.958034375,245.5120732421875C40.110034375,245.6440732421875,40.274034375,245.7620732421875,40.446034374999996,245.8660732421875ZM41.700034375,237.4000732421875C42.072034375,237.2420732421875,42.476034375,237.1740732421875,42.880034375,237.2000732421875C43.580934375,237.1776132421875,44.249034375,237.4967732421875,44.672034374999996,238.0560732421875C45.186034375,238.7820732421875,45.436034375,239.6600732421875,45.386034375,240.5460732421875C45.439734375,241.5950732421875,45.159634374999996,242.6341732421875,44.586034375,243.5140732421875C44.160634375,244.1573732421875,43.437234375,244.5402732421875,42.666034375,244.5300732421875C41.922434375,244.5632732421875,41.204034375,244.2563732421875,40.714034375,243.6960732421875C40.203334375,243.1192732421875,39.930334375,242.3702732421875,39.950034375,241.6000732421875L39.950034375,240.4000732421875C39.926234375,239.5667632421875,40.205534375,238.7531232421875,40.736034375,238.1100732421875C40.996034375,237.8020732421875,41.328034375,237.5580732421875,41.700034375,237.4000732421875ZM32.578044375,235.3500732421875C31.940214375,235.3587732421875,31.307764375,235.4681132421875,30.704044375,235.6740732421875C30.128344375,235.8459332421875,29.586944375,236.1166432421875,29.104044375,236.4740732421875L28.904040375,236.6280732421875L28.904040375,239.0280732421875L29.750044375,238.3100732421875C30.491574375,237.6096332421875,31.462664375,237.2030032421875,32.482044375,237.1660732421875C32.989484375,237.1199632421875,33.486154375,237.3318532421875,33.804044375000004,237.7300732421875C34.104044375,238.1940732421875,34.264044375,238.7360732421875,34.266044375,239.2880732421875L31.800044375,239.6500732421875C30.788694375,239.7556932421875,29.830504375,240.1555232421875,29.044040375,240.8000732421875C27.739686375,242.0771732421875,27.719971375,244.1706732421875,29.000040375,245.4720732421875C29.681414375,246.0958732421875,30.583204375,246.4226732421875,31.506044375000002,246.3800732421875C32.294004375,246.38627324218749,33.065554375,246.1548732421875,33.720044375,245.7160732421875C33.924044375,245.5800732421875,34.114044375,245.4260732421875,34.292044375,245.2580732421875L34.292044375,246.1460732421875L36.174044375,246.1460732421875L36.174044375,239.4300732421875C36.242744375,238.3485332421875,35.908604375,237.2798432421875,35.236044375,236.4300732421875C34.554854375,235.6925432421875,33.580594375000004,235.2966832421875,32.578044375,235.3500732421875ZM34.292044375,241.4320732421875C34.332044375,242.2680732421875,34.052044375,243.0900732421875,33.510044375,243.7280732421875C33.031824375,244.2811732421875,32.330954375,244.5908732421875,31.600044375,244.5720732421875C31.157584375,244.6061732421875,30.719824375,244.4621732421875,30.384044375000002,244.1720732421875C29.841474375,243.5458732421875,29.841474375,242.6162732421875,30.384044375000002,241.9900732421875C30.946044375,241.6420732421875,31.584044375,241.4360732421875,32.244044375,241.3900732421875L34.284044375,241.0940732421875L34.292044375,241.4320732421875ZM50.918034375000005,246.06607324218749C51.532034374999995,246.3260732421875,52.198034375,246.4520732421875,52.864034375,246.4300732421875C53.854034375,246.4540732421875,54.830034375,246.2020732421875,55.684034374999996,245.7000732421875L55.930034375000005,245.5500732421875L55.956034375,245.5360732421875L55.956034375,243.2300732421875L55.064034375,243.8700732421875C54.432034375,244.3180732421875,53.672034374999996,244.5500732421875,52.896034375,244.5280732421875C52.091334375,244.5600732421875,51.317334375,244.2172732421875,50.800034374999996,243.6000732421875C50.228434375,242.8490732421875,49.944634375,241.9182732421875,50.000034375,240.9760732421875C49.946934375,239.9746232421875,50.270134375,238.9895032421875,50.906034375000004,238.2140732421875C51.474234375,237.5414232421875,52.320134374999995,237.1674832421875,53.200034375,237.2000732421875C53.887334374999995,237.1968732421875,54.561234375,237.3904932421875,55.142034375,237.7580732421875L56.002034375,238.2880732421875L56.002034375,235.9400732421875L55.662034375000005,235.7940732421875C54.924834375,235.4686332421875,54.127934374999995,235.3003932421875,53.322034375,235.3000732421875C51.859834375,235.2590832421875,50.452034375,235.8553632421875,49.464034375,236.9340732421875C48.451834375000004,238.0536432421875,47.915834375,239.5237132421875,47.970034375,241.0320732421875C47.914034375,242.4460732421875,48.390034375,243.8320732421875,49.310034375,244.9100732421875C49.754034375,245.4080732421875,50.304034375,245.8020732421875,50.918034375000005,246.06607324218749Z" fill-rule="evenodd" fill="#FFFFFF" fill-opacity="1"/></g></g><g><path d="M14.71875,250.74525C18.0078,250.74525,20.210900000000002,248.74525,20.210900000000002,246.15155C20.210900000000002,243.66715,18.7969,242.32335,17.25781,241.40935L17.25781,241.29215C18.2969,240.45615,19.585900000000002,238.83905,19.585900000000002,236.94835C19.585900000000002,234.17495,17.76562,232.24525,14.76562,232.24525C12.03125,232.24525,9.9375,234.04995,9.9375,236.77655C9.9375,238.66715,11.04688,240.01085,12.32031,240.92495L12.32031,241.01865C10.71094,241.90155,9.10156,243.59685,9.10156,246.00305C9.10156,248.77655,11.45312,250.74525,14.71875,250.74525ZM15.91406,240.69835C13.82812,239.87025,11.92969,238.90935,11.92969,236.77655C11.92969,235.03435,13.10938,233.87805,14.74219,233.87805C16.60938,233.87805,17.71875,235.27655,17.71875,237.07335C17.71875,238.39365,17.09375,239.62025,15.91406,240.69835ZM14.74219,249.12025C12.625,249.12025,11.04688,247.72185,11.04688,245.80775C11.04688,244.08905,12.05469,242.66715,13.46875,241.72965C15.96094,242.76085,18.125,243.64365,18.125,246.07335C18.125,247.86245,16.78125,249.12025,14.74219,249.12025Z" fill="#FFFFFF" fill-opacity="1"/></g><g><path d="M70.31641,240.05075L68.23047,242.21875L68.23047,247.98435L65.98047,247.98435L65.98047,230.92187L68.23047,230.92187L68.23047,239.35935L75.8125,230.92187L78.5312,230.92187L71.81641,238.45705L79.0586,247.98435L76.3633,247.98435L70.31641,240.05075ZM85.9492,248.21875Q83.3711,248.21875,81.7539,246.52535Q80.1367,244.83205,80.1367,241.99605L80.1367,241.59765Q80.1367,239.71095,80.8574,238.22855Q81.5781,236.74605,82.873,235.90825Q84.168,235.07035,85.6797,235.07035Q88.1523,235.07035,89.5234,236.69925Q90.8945,238.32815,90.8945,241.36325L90.8945,242.26565L82.3047,242.26565Q82.3516,244.14065,83.4004,245.29495Q84.4492,246.44925,86.0664,246.44925Q87.2148,246.44925,88.0117,245.98045Q88.8086,245.51175,89.4062,244.73825L90.7305,245.76955Q89.1367,248.21875,85.9492,248.21875ZM85.6797,236.85155Q84.3672,236.85155,83.4766,237.80665Q82.5859,238.76175,82.375,240.48435L88.7266,240.48435L88.7266,240.32035Q88.6328,238.66795,87.8359,237.75975Q87.0391,236.85155,85.6797,236.85155ZM100.8906,230.92187L103.1523,230.92187L103.1523,243.00395Q103.1523,245.45315,101.6816,246.83595Q100.21090000000001,248.21875,97.76169999999999,248.21875Q95.2188,248.21875,93.8008,246.91795Q92.3828,245.61715,92.3828,243.27345L94.6328,243.27345Q94.6328,244.73825,95.4355,245.55855Q96.23830000000001,246.37895,97.76169999999999,246.37895Q99.1562,246.37895,100.0176,245.50005Q100.8789,244.62105,100.8906,243.03905L100.8906,230.92187ZM114.4727,246.73045Q113.207,248.21875,110.7578,248.21875Q108.7305,248.21875,107.6699,247.04104999999998Q106.6094,245.86325,106.5977,243.55465L106.5977,235.30465L108.7656,235.30465L108.7656,243.49605Q108.7656,246.37895,111.1094,246.37895Q113.5938,246.37895,114.41409999999999,244.52735L114.41409999999999,235.30465L116.582,235.30465L116.582,247.98435L114.5195,247.98435L114.4727,246.73045ZM121.92580000000001,235.30465L121.9961,236.89845Q123.44919999999999,235.07035,125.793,235.07035Q129.8125,235.07035,129.8477,239.60545L129.8477,247.98435L127.6797,247.98435L127.6797,239.59375Q127.668,238.22265,127.0527,237.56645Q126.4375,236.91015,125.13669999999999,236.91015Q124.082,236.91015,123.2852,237.47265Q122.48830000000001,238.03515,122.043,238.94925L122.043,247.98435L119.875,247.98435L119.875,235.30465L121.92580000000001,235.30465Z" fill="#FFFFFF" fill-opacity="1"/></g></g></g></svg>